<svg xmlns="http://www.w3.org/2000/svg" viewBox="0 0 457.17 457.17"><g id="Layer_2" data-name="Layer 2"><g id="Layer_1-2" data-name="Layer 1"><rect x="136.91" y="140.02" width="180.96" height="180.96" style="fill:#fff"/><path d="M308.58,149.31V311.69H146.2V149.31H308.58m18.58-18.58H127.62V330.27H327.16V130.73Z"/><polyline points="379.75 8.09 8.09 8.09 8.09 449.09 449.03 449.09 449.09 77.59" style="fill:none;stroke:#000;stroke-miterlimit:10;stroke-width:16.1721763842943px"/><line x1="160.32" y1="56.41" x2="160.32" y2="130.73" style="fill:none;stroke:#000;stroke-miterlimit:10;stroke-width:28.72661740964217px"/><line x1="203.98" y1="56.41" x2="203.98" y2="130.73" style="fill:none;stroke:#000;stroke-miterlimit:10;stroke-width:28.72661740964217px"/><line x1="249.68" y1="56.41" x2="249.68" y2="130.73" style="fill:none;stroke:#000;stroke-miterlimit:10;stroke-width:28.72661740964217px"/><line x1="293.35" y1="56.41" x2="293.35" y2="130.73" style="fill:none;stroke:#000;stroke-miterlimit:10;stroke-width:28.72661740964217px"/><line x1="401.6" y1="163.43" x2="327.28" y2="163.43" style="fill:none;stroke:#000;stroke-miterlimit:10;stroke-width:28.72661740964217px"/><line x1="401.6" y1="207.09" x2="327.28" y2="207.09" style="fill:none;stroke:#000;stroke-miterlimit:10;stroke-width:28.72661740964217px"/><line x1="401.6" y1="252.79" x2="327.28" y2="252.79" style="fill:none;stroke:#000;stroke-miterlimit:10;stroke-width:28.72661740964217px"/><line x1="401.6" y1="296.46" x2="327.28" y2="296.46" style="fill:none;stroke:#000;stroke-miterlimit:10;stroke-width:28.72661740964217px"/><line x1="127.74" y1="163.8" x2="53.43" y2="163.8" style="fill:none;stroke:#000;stroke-miterlimit:10;stroke-width:28.72661740964217px"/><line x1="127.74" y1="207.47" x2="53.43" y2="207.47" style="fill:none;stroke:#000;stroke-miterlimit:10;stroke-width:28.72661740964217px"/><line x1="127.74" y1="253.16" x2="53.43" y2="253.16" style="fill:none;stroke:#000;stroke-miterlimit:10;stroke-width:28.72661740964217px"/><line x1="127.74" y1="296.83" x2="53.43" y2="296.83" style="fill:none;stroke:#000;stroke-miterlimit:10;stroke-width:28.72661740964217px"/><line x1="158.96" y1="330.27" x2="158.96" y2="404.59" style="fill:none;stroke:#000;stroke-miterlimit:10;stroke-width:28.72661740964217px"/><line x1="202.62" y1="330.27" x2="202.62" y2="404.59" style="fill:none;stroke:#000;stroke-miterlimit:10;stroke-width:28.72661740964217px"/><line x1="248.32" y1="330.27" x2="248.32" y2="404.59" style="fill:none;stroke:#000;stroke-miterlimit:10;stroke-width:28.72661740964217px"/><line x1="291.98" y1="330.27" x2="291.98" y2="404.59" style="fill:none;stroke:#000;stroke-miterlimit:10;stroke-width:28.72661740964217px"/></g></g></svg>