<svg xmlns="http://www.w3.org/2000/svg" xmlns:xlink="http://www.w3.org/1999/xlink" viewBox="0 0 66 64" fill="#fff" fill-rule="evenodd" stroke="#000" stroke-linecap="round" stroke-linejoin="round"><use xlink:href="#A" x=".5" y=".5"/><symbol id="A" overflow="visible"><path d="M63.271 1.052c3.4 3.4-6.03 18.295-7.62 19.886s-5.6.126-9-3.266-4.856-7.4-3.266-9c1.6-1.633 16.495-11 19.886-7.62zm-47.57 3.592C10.519 1.722 3.151-1.543.807.801c-2.386 2.386.994 9.923 3.977 15.113 2.637-4.647 6.405-8.498 10.917-11.27zm42.378 15.122c.46 1.633.377 2.972-.377 3.726-1.8 1.8-6.698-.126-11.094-4.312-.293-.293-.628-.544-.92-.88-1.6-1.6-2.847-3.266-3.6-4.856-1.55-2.763-1.926-5.2-.754-6.364.628-.628 1.633-.795 2.9-.586.795-.502 1.758-1.1 2.805-1.675-4.283-2.218-9.098-3.475-14.205-3.475-16.997 0-30.77 13.774-30.77 30.77s13.774 30.77 30.77 30.77 30.77-13.774 30.77-30.77c0-5.484-1.423-10.634-3.977-15.113-.462.95-.979 1.873-1.549 2.763z" stroke="none" fill="#000000" fill-rule="nonzero"/></symbol></svg>