<svg xmlns="http://www.w3.org/2000/svg" viewBox="0 0 346.56 456.56"><g id="Layer_2" data-name="Layer 2"><g id="Layer_1-2" data-name="Layer 1"><rect x="7.78" y="7.78" width="331" height="441" style="fill:none;stroke:#000;stroke-miterlimit:10;stroke-width:15.5596547886789px"/><circle cx="173.78" cy="171.78" r="135" style="fill:none;stroke:#000;stroke-miterlimit:10;stroke-width:17.6517092140475px"/><polyline points="74.06 332.5 38.78 297.22 39.78 419.31 173.78 419.78 135.35 381.35" style="fill:none;stroke:#000;stroke-miterlimit:10;stroke-width:15.5596547886789px"/><path d="M83.88,350.73,193.12,228.48a.15.15,0,0,1,.24.16L118.52,372.35a19.27,19.27,0,0,1-30.26,8.12h0A22.33,22.33,0,0,1,83.88,350.73Z" style="stroke:#000;stroke-miterlimit:10;stroke-width:17.6517092140475px"/><circle cx="175.78" cy="171.78" r="20" style="fill:none;stroke:#000;stroke-miterlimit:10;stroke-width:15.5596547886789px"/><polygon points="175.78 369.22 226.78 419.78 306.78 419.78 306.78 335 209.78 334.78 175.78 369.22" style="fill:none;stroke:#000;stroke-miterlimit:10;stroke-width:15.5596547886789px"/></g></g></svg>