<?xml version="1.0" standalone="no"?>
<!DOCTYPE svg PUBLIC "-//W3C//DTD SVG 20010904//EN"
 "http://www.w3.org/TR/2001/REC-SVG-20010904/DTD/svg10.dtd">
<svg version="1.0" xmlns="http://www.w3.org/2000/svg"
 width="949.000000pt" height="951.000000pt" viewBox="0 0 949.000000 951.000000"
 preserveAspectRatio="xMidYMid meet">
<metadata>
Created by potrace 1.16, written by Peter Selinger 2001-2019
</metadata>
<g transform="translate(0.000000,951.000000) scale(0.100000,-0.100000)"
fill="#000000" stroke="none">
<path d="M4460 9459 c-1148 -69 -2220 -553 -3044 -1374 -609 -607 -1035 -1362
-1240 -2195 -86 -349 -124 -642 -133 -1010 -15 -660 89 -1257 324 -1855 61
-155 222 -490 303 -630 165 -286 415 -621 638 -855 l81 -85 1993 1990 c1096
1095 2171 2167 2390 2384 l396 394 1512 -1509 c1113 -1111 1513 -1505 1520
-1495 26 43 141 478 174 661 88 483 102 1008 40 1495 -101 790 -409 1550 -894
2200 -263 354 -613 702 -975 970 -890 660 -1974 981 -3085 914z"/>
<path d="M4469 2179 c-926 -930 -1685 -1694 -1687 -1698 -5 -15 307 -139 523
-208 441 -140 857 -209 1320 -220 489 -11 876 33 1335 153 734 192 1451 588
1995 1105 146 139 375 379 375 393 0 15 -2152 2166 -2166 2166 -7 0 -769 -761
-1695 -1691z"/>
</g>
</svg>
