<?xml version="1.0" standalone="no"?>
<!DOCTYPE svg PUBLIC "-//W3C//DTD SVG 20010904//EN"
 "http://www.w3.org/TR/2001/REC-SVG-20010904/DTD/svg10.dtd">
<svg version="1.0" xmlns="http://www.w3.org/2000/svg"
 width="1566.000000pt" height="1266.000000pt" viewBox="0 0 1566.000000 1266.000000"
 preserveAspectRatio="xMidYMid meet">
<metadata>
Created by potrace 1.16, written by Peter Selinger 2001-2019
</metadata>
<g transform="translate(0.000000,1266.000000) scale(0.100000,-0.100000)"
fill="#000000" stroke="none">
<path d="M7440 12120 c-648 -26 -1304 -166 -1905 -407 -203 -81 -575 -265
-771 -380 -748 -441 -1417 -1076 -1886 -1789 -666 -1011 -994 -2183 -948
-3381 27 -690 151 -1285 401 -1923 75 -191 254 -560 369 -760 202 -350 509
-761 774 -1038 l100 -103 2915 2915 c1604 1604 2921 2916 2926 2916 5 0 841
-831 1857 -1847 l1846 -1846 47 147 c325 1028 356 2127 89 3179 -165 648 -442
1256 -832 1827 -471 689 -1140 1308 -1865 1724 -733 421 -1477 659 -2329 746
-96 10 -551 32 -588 28 -8 -1 -98 -4 -200 -8z"/>
<path d="M7345 3210 c-1138 -1138 -2067 -2071 -2065 -2073 13 -9 181 -81 305
-130 486 -190 997 -311 1550 -367 308 -32 852 -29 1165 6 465 51 983 174 1410
336 717 271 1393 698 1940 1223 126 121 299 301 370 386 l39 45 -1322 1322
-1322 1322 -2070 -2070z"/>
</g>
</svg>
