<svg xmlns="http://www.w3.org/2000/svg" viewBox="0 0 457.17 371"><g id="Layer_2" data-name="Layer 2"><g id="Layer_1-2" data-name="Layer 1"><polygon points="449.17 164 239.17 164 239.17 145 217.17 149 217.17 164 8.17 164 8.17 57 26.17 57 26.17 34 8.17 34 8.17 8 449.17 8 449.17 34 431.17 34 431.17 57 449.17 57 449.17 164" style="fill:none;stroke:#000;stroke-miterlimit:10;stroke-width:16px"/><line x1="34.17" y1="142" x2="34.17" y2="157" style="fill:none;stroke:#000;stroke-miterlimit:10;stroke-width:12.2893123012681px"/><line x1="56.17" y1="142" x2="56.17" y2="157" style="fill:none;stroke:#000;stroke-miterlimit:10;stroke-width:12.2893123012681px"/><line x1="78.17" y1="142" x2="78.17" y2="157" style="fill:none;stroke:#000;stroke-miterlimit:10;stroke-width:12.2893123012681px"/><line x1="100.17" y1="142" x2="100.17" y2="157" style="fill:none;stroke:#000;stroke-miterlimit:10;stroke-width:12.2893123012681px"/><line x1="122.17" y1="142" x2="122.17" y2="157" style="fill:none;stroke:#000;stroke-miterlimit:10;stroke-width:12.2893123012681px"/><line x1="144.17" y1="142" x2="144.17" y2="157" style="fill:none;stroke:#000;stroke-miterlimit:10;stroke-width:12.2893123012681px"/><line x1="166.17" y1="142" x2="166.17" y2="157" style="fill:none;stroke:#000;stroke-miterlimit:10;stroke-width:12.2893123012681px"/><line x1="188.17" y1="142" x2="188.17" y2="157" style="fill:none;stroke:#000;stroke-miterlimit:10;stroke-width:12.2893123012681px"/><line x1="268.17" y1="142" x2="268.17" y2="157" style="fill:none;stroke:#000;stroke-miterlimit:10;stroke-width:12.2893123012681px"/><line x1="290.17" y1="142" x2="290.17" y2="157" style="fill:none;stroke:#000;stroke-miterlimit:10;stroke-width:12.2893123012681px"/><line x1="312.17" y1="142" x2="312.17" y2="157" style="fill:none;stroke:#000;stroke-miterlimit:10;stroke-width:12.2893123012681px"/><line x1="334.17" y1="142" x2="334.17" y2="157" style="fill:none;stroke:#000;stroke-miterlimit:10;stroke-width:12.2893123012681px"/><line x1="356.17" y1="142" x2="356.17" y2="157" style="fill:none;stroke:#000;stroke-miterlimit:10;stroke-width:12.2893123012681px"/><line x1="378.17" y1="142" x2="378.17" y2="157" style="fill:none;stroke:#000;stroke-miterlimit:10;stroke-width:12.2893123012681px"/><line x1="400.17" y1="142" x2="400.17" y2="157" style="fill:none;stroke:#000;stroke-miterlimit:10;stroke-width:12.2893123012681px"/><line x1="422.17" y1="142" x2="422.17" y2="157" style="fill:none;stroke:#000;stroke-miterlimit:10;stroke-width:12.2893123012681px"/><rect x="54.67" y="34" width="55" height="80" style="fill:none;stroke:#000;stroke-miterlimit:10;stroke-width:14px"/><rect x="147.17" y="34" width="55" height="80" style="fill:none;stroke:#000;stroke-miterlimit:10;stroke-width:14px"/><rect x="253.08" y="34" width="55" height="80" style="fill:none;stroke:#000;stroke-miterlimit:10;stroke-width:14px"/><rect x="345.58" y="34" width="55" height="80" style="fill:none;stroke:#000;stroke-miterlimit:10;stroke-width:14px"/><polygon points="449 363 239 363 239 344 217 348 217 363 8 363 8 256 26 256 26 233 8 233 8 207 449 207 449 233 431 233 431 256 449 256 449 363" style="fill:none;stroke:#000;stroke-miterlimit:10;stroke-width:16px"/><line x1="34" y1="341" x2="34" y2="356" style="fill:none;stroke:#000;stroke-miterlimit:10;stroke-width:12.2893123012681px"/><line x1="56" y1="341" x2="56" y2="356" style="fill:none;stroke:#000;stroke-miterlimit:10;stroke-width:12.2893123012681px"/><line x1="78" y1="341" x2="78" y2="356" style="fill:none;stroke:#000;stroke-miterlimit:10;stroke-width:12.2893123012681px"/><line x1="100" y1="341" x2="100" y2="356" style="fill:none;stroke:#000;stroke-miterlimit:10;stroke-width:12.2893123012681px"/><line x1="122" y1="341" x2="122" y2="356" style="fill:none;stroke:#000;stroke-miterlimit:10;stroke-width:12.2893123012681px"/><line x1="144" y1="341" x2="144" y2="356" style="fill:none;stroke:#000;stroke-miterlimit:10;stroke-width:12.2893123012681px"/><line x1="166" y1="341" x2="166" y2="356" style="fill:none;stroke:#000;stroke-miterlimit:10;stroke-width:12.2893123012681px"/><line x1="188" y1="341" x2="188" y2="356" style="fill:none;stroke:#000;stroke-miterlimit:10;stroke-width:12.2893123012681px"/><line x1="268" y1="341" x2="268" y2="356" style="fill:none;stroke:#000;stroke-miterlimit:10;stroke-width:12.2893123012681px"/><line x1="290" y1="341" x2="290" y2="356" style="fill:none;stroke:#000;stroke-miterlimit:10;stroke-width:12.2893123012681px"/><line x1="312" y1="341" x2="312" y2="356" style="fill:none;stroke:#000;stroke-miterlimit:10;stroke-width:12.2893123012681px"/><line x1="334" y1="341" x2="334" y2="356" style="fill:none;stroke:#000;stroke-miterlimit:10;stroke-width:12.2893123012681px"/><line x1="356" y1="341" x2="356" y2="356" style="fill:none;stroke:#000;stroke-miterlimit:10;stroke-width:12.2893123012681px"/><line x1="378" y1="341" x2="378" y2="356" style="fill:none;stroke:#000;stroke-miterlimit:10;stroke-width:12.2893123012681px"/><line x1="400" y1="341" x2="400" y2="356" style="fill:none;stroke:#000;stroke-miterlimit:10;stroke-width:12.2893123012681px"/><line x1="422" y1="341" x2="422" y2="356" style="fill:none;stroke:#000;stroke-miterlimit:10;stroke-width:12.2893123012681px"/><rect x="54.5" y="233" width="55" height="80" style="fill:none;stroke:#000;stroke-miterlimit:10;stroke-width:14px"/><rect x="147" y="233" width="55" height="80" style="fill:none;stroke:#000;stroke-miterlimit:10;stroke-width:14px"/><rect x="252.92" y="233" width="55" height="80" style="fill:none;stroke:#000;stroke-miterlimit:10;stroke-width:14px"/><rect x="345.42" y="233" width="55" height="80" style="fill:none;stroke:#000;stroke-miterlimit:10;stroke-width:14px"/></g></g></svg>